<?xml version="1.0" encoding="UTF-8"?>
<svg xmlns="http://www.w3.org/2000/svg" xmlns:xlink="http://www.w3.org/1999/xlink" width="274.45pt" height="144.05pt" viewBox="0 0 274.45 144.05" version="1.1">
<defs>
<clipPath id="clip1">
  <path d="M 45 22 L 133 22 L 133 144.050781 L 45 144.050781 Z M 45 22 "/>
</clipPath>
<clipPath id="clip2">
  <path d="M 179 0 L 274.449219 0 L 274.449219 124 L 179 124 Z M 179 0 "/>
</clipPath>
</defs>
<g id="surface1">
<g clip-path="url(#clip1)" clip-rule="nonzero">
<path style=" stroke:none;fill-rule:nonzero;fill:rgb(9.01947%,70.979309%,91.763306%);fill-opacity:1;" d="M 102.464844 124.042969 L 45.597656 124.070313 L 65.726563 101.242188 L 96.824219 101.242188 C 103.667969 101.242188 109.449219 95.140625 109.449219 87.914063 L 109.449219 58.332031 C 109.449219 51.371094 103.789063 45.707031 96.824219 45.707031 L 48.71875 45.707031 L 48.71875 22.867188 L 101.628906 22.867188 C 119.4375 22.867188 132.363281 37.027344 132.363281 56.53125 L 132.363281 95.542969 L 132.371094 95.535156 L 132.371094 144.050781 L 102.464844 124.042969 "/>
</g>
<path style=" stroke:none;fill-rule:nonzero;fill:rgb(17.999268%,22.698975%,25.898743%);fill-opacity:1;" d="M 144.4375 123.558594 L 144.4375 0.136719 L 167.132813 0.136719 L 167.132813 123.558594 L 144.4375 123.558594 "/>
<g clip-path="url(#clip2)" clip-rule="nonzero">
<path style=" stroke:none;fill-rule:nonzero;fill:rgb(17.999268%,22.698975%,25.898743%);fill-opacity:1;" d="M 179.320313 123.558594 L 179.320313 0.136719 L 202.015625 0.136719 L 202.015625 123.558594 Z M 245.492188 123.558594 L 202.324219 73.375 L 245.132813 23.289063 L 273.398438 23.289063 L 230.796875 73.175781 L 274.449219 123.558594 L 245.492188 123.558594 "/>
</g>
<path style=" stroke:none;fill-rule:nonzero;fill:rgb(17.999268%,22.698975%,25.898743%);fill-opacity:1;" d="M 32.449219 124.109375 C 14.957031 124.109375 0.402344 109.886719 0.0078125 92.402344 L 0 92.011719 L 0 0.00390625 L 22.835938 0.00390625 L 22.835938 22.851563 L 45.371094 22.851563 L 45.371094 45.6875 L 22.835938 45.6875 L 22.839844 88.34375 C 22.839844 96.078125 27.378906 101.269531 34.140625 101.269531 L 45.371094 101.273438 L 45.371094 124.109375 L 32.449219 124.109375 "/>
</g>
</svg>
