<svg xmlns="http://www.w3.org/2000/svg" viewBox="0 0 400 400">
  <!-- Background -->
  <rect width="100%" height="100%" fill="#2d2d2d"/>
  
  <!-- Speech Bubble -->
  <path d="M158.5 307.5c0 16.6-13.4 30-30 30s-30-13.4-30-30V150c0-16.6 13.4-30 30-30s30 13.4 30 30v157.5z" fill="#4d79ff"/>
  <path d="M150 0C67.2 0 0 67.2 0 150c0 35.5 12.6 68.2 33.5 93.7L14.4 380c-1.2 4.9 3 9.7 8.1 9.7h22.4c4.4 0 8.1-3.7 8.1-8.1V279.7c0-4.4 3.6-8 8-8h11.5c39.8 0 74.7-26.1 86.5-63.2 1.3-4.6-2.4-9.2-7.3-9.2h-5.6c-3.7 0-6.8 2.8-7.2 6.5-5.6 32-34.2 56-67.7 56H119c-4.4 0-8 3.6-8 8v37.7c0 4.4 3.6 8 8 8h39.4c58.4 0 106-47.6 106-106C256 67.2 188.8 0 106 0zm62.4 136.3c-4.2 0-7.6 3.4-7.6 7.6 0 4.2 3.4 7.6 7.6 7.6h44.8c4.2 0 7.6-3.4 7.6-7.6 0-4.2-3.4-7.6-7.6-7.6h-44.8zm0 33c-4.2 0-7.6 3.4-7.6 7.6 0 4.2 3.4 7.6 7.6 7.6h83.2c4.2 0 7.6-3.4 7.6-7.6 0-4.2-3.4-7.6-7.6-7.6H212.4zm-57.2 33c-4.2 0-7.6 3.4-7.6 7.6 0 4.2 3.4 7.6 7.6 7.6h83.2c4.2 0 7.6-3.4 7.6-7.6 0-4.2-3.4-7.6-7.6-7.6H155.2zm-56 33c-4.2 0-7.6 3.4-7.6 7.6 0 4.2 3.4 7.6 7.6 7.6h83.2c4.2 0 7.6-3.4 7.6-7.6 0-4.2-3.4-7.6-7.6-7.6H99.2zm-45.6 31.2c-.5-.5-1-.7-1.6-.7H47c-3.3 0-6 2.7-6 6s2.7 6 6 6h6c.5 0 1-.2 1.4-.6l6.5-6.6c3.5-3.5 3.5-9.2 0-12.7l-6.5-6.5zm14.4 0c-.6 0-1.1.3-1.6.7l-6.5 6.5c-3.5 3.5-3.5 9.2 0 12.7l6.5 6.6c.4.4.9.6 1.4.6h6c3.3 0 6-2.7 6-6s-2.7-6-6-6h-6zM334.4 238.5c-4.2 0-7.6 3.4-7.6 7.6 0 4.2 3.4 7.6 7.6 7.6h35.2c4.2 0 7.6-3.4 7.6-7.6s-3.4-7.6-7.6-7.6h-35.2zM334.4 199.5c-4.2 0-7.6 3.4-7.6 7.6 0 4.2 3.4 7.6 7.6 7.6h83.2c4.2 0 7.6-3.4 7.6-7.6 0-4.2-3.4-7.6-7.6-7.6h-83.2zm0 33c-4.2 0-7.6 3.4-7.6 7.6s3.4 7.6 7.6 7.6h83.2c4.2 0 7.6-3.4 7.6-7.6s-3.4-7.6-7.6-7.6h-83.2zm0 33c-4.2 0-7.6 3.4-7.6 7.6 0 4.2 3.4 7.6 7.6 7.6h83.2c4.2 0 7.6-3.4 7.6-7.6 0-4.2-3.4-7.6-7.6-7.6h-83.2zm0 33c-4.2 0-7.6 3.4-7.6 7.6 0 4.2 3.4 7.6 7.6 7.6h83.2c4.2 0 7.6-3.4 7.6-7.6 0-4.2-3.4-7.6-7.6-7.6h-83.2z" fill="#fff"/>
  
  <!-- Glassy Effect -->
  <circle cx="200" cy="200" r="160" fill="#ffffff" fill-opacity="0.1"/>
</svg>
